<?xml version="1.0" encoding="UTF-8" standalone="no"?>
<!-- Created with Inkscape (http://www.inkscape.org/) -->

<svg
   width="1080"
   height="1080"
   viewBox="0 0 285.75 285.75"
   version="1.1"
   id="svg5"
   shape-rendering="crispEdges"
   inkscape:version="1.1.1 (3bf5ae0d25, 2021-09-20)"
   sodipodi:docname="bg-path.svg"
   xmlns:inkscape="http://www.inkscape.org/namespaces/inkscape"
   xmlns:sodipodi="http://sodipodi.sourceforge.net/DTD/sodipodi-0.dtd"
   xmlns="http://www.w3.org/2000/svg"
   xmlns:svg="http://www.w3.org/2000/svg">
  <sodipodi:namedview
     id="namedview7"
     pagecolor="#ffffff"
     bordercolor="#111111"
     borderopacity="1"
     inkscape:pageshadow="0"
     inkscape:pageopacity="1"
     inkscape:pagecheckerboard="true"
     inkscape:document-units="px"
     showgrid="false"
     borderlayer="false"
     inkscape:showpageshadow="true"
     inkscape:zoom="0.5403299"
     inkscape:cx="-1222.4014"
     inkscape:cy="917.03235"
     inkscape:window-width="3840"
     inkscape:window-height="2075"
     inkscape:window-x="1440"
     inkscape:window-y="0"
     inkscape:window-maximized="1"
     inkscape:current-layer="text24436"
     width="1080px" />
  <defs
     id="defs2">
    <rect
       x="76.300003"
       y="467.6611"
       width="884.42041"
       height="1051.8275"
       id="rect4338" />
  </defs>
  <g
     inkscape:label="图层 1"
     inkscape:groupmode="layer"
     id="layer1">
    <path
       id="rect31"
       style="fill:#000000;fill-opacity:1;fill-rule:evenodd;stroke-width:0.249976"
       d="M 0,0 285.75,285.75 H 0 Z"
       sodipodi:nodetypes="cccc" />
    <g
       aria-label="L"
       transform="matrix(0.43451899,0,0,0.43451899,-54.345061,-216.17254)"
       id="text4336"
       style="font-size:666.667px;line-height:1.25;white-space:pre;shape-inside:url(#rect4338)">
      <path
         d="m 142.96748,1137.6605 h 275.33347 v -52.6667 H 204.96751 V 648.32691 h -62.00003 z"
         style="fill:#ffffff"
         id="path990" />
    </g>
    <g
       aria-label="e"
       id="text3510"
       style="font-size:50.8px;line-height:1.25;fill:#ffffff;stroke-width:0.264583">
      <path
         d="m 53.870634,180.58832 c 3.7592,0 6.7056,-1.27 9.144,-2.8448 l -1.6764,-3.048 c -2.032,1.3716 -4.2164,2.1844 -6.9088,2.1844 -5.2324,0 -8.8392,-3.7592 -9.144,-9.652 h 18.5928 c 0.1016,-0.6604 0.2032,-1.6256 0.2032,-2.6416 0,-7.874 -3.9624,-12.954 -10.9728,-12.954 -6.4008,0 -12.445999,5.588 -12.445999,14.5288 0,9.0932 5.892799,14.4272 13.207999,14.4272 z m -8.636,-16.7132 c 0.5588,-5.3848 4.0132,-8.5344 7.9248,-8.5344 4.318,0 6.858,2.9972 6.858,8.5344 z"
         id="path987" />
    </g>
    <g
       aria-label="A"
       transform="scale(-1)"
       id="text24436"
       style="font-size:232.994px;line-height:1.25;stroke-width:5.82486">
      <path
         d="m -148.06773,-108.66927 c 6.05785,-19.3385 11.6497,-37.74503 17.00856,-57.78251 h 0.93198 c 5.59186,19.80449 10.95072,38.44401 17.24156,57.78251 l 8.15479,26.09533 h -51.72467 z m -52.19065,95.527543 h 21.90143 l 16.54258,-52.190657 h 62.442388 l 16.309581,52.190657 h 22.833412 L -118.2445,-184.15933 h -23.99838 z"
         id="path984" />
    </g>
  </g>
  <g
     inkscape:groupmode="layer"
     id="layer2"
     inkscape:label="图层 2"
     sodipodi:insensitive="true">
    <text
       xml:space="preserve"
       style="font-style:normal;font-weight:normal;font-size:334.132px;line-height:1.25;font-family:sans-serif;fill:#ffffff;fill-opacity:1;stroke:none;stroke-width:8.35331"
       x="49.665657"
       y="273.79694"
       id="text13432"><tspan
         sodipodi:role="line"
         id="tspan13430"
         style="fill:#ffffff;fill-opacity:1;stroke-width:8.35331"
         x="49.665657"
         y="273.79694">x</tspan></text>
  </g>
</svg>
