<svg width="1080" height="1080" shape-rendering="crispEdges" version="1.1" viewBox="0 0 285.75 285.75" xmlns="http://www.w3.org/2000/svg">
 <path d="M 0,0 285.75,285.75 H 0 Z" fill-rule="evenodd" stroke-width=".24998"/>
 <g transform="matrix(.43452 0 0 .43452 -54.345 -216.17)" style="shape-inside:url(#rect4338);white-space:pre" aria-label="L">
  <path d="m142.97 1137.7h275.33v-52.667h-213.33v-436.67h-62z" fill="#fff"/>
 </g>
 <g fill="#fff" stroke-width=".26458" aria-label="e">
  <path d="m53.871 180.59c3.7592 0 6.7056-1.27 9.144-2.8448l-1.6764-3.048c-2.032 1.3716-4.2164 2.1844-6.9088 2.1844-5.2324 0-8.8392-3.7592-9.144-9.652h18.593c0.1016-0.6604 0.2032-1.6256 0.2032-2.6416 0-7.874-3.9624-12.954-10.973-12.954-6.4008 0-12.446 5.588-12.446 14.529 0 9.0932 5.8928 14.427 13.208 14.427zm-8.636-16.713c0.5588-5.3848 4.0132-8.5344 7.9248-8.5344 4.318 0 6.858 2.9972 6.858 8.5344z"/>
 </g>
 <g transform="scale(-1)" stroke-width="5.8249" aria-label="A">
  <path d="m-148.07-108.67c6.0578-19.338 11.65-37.745 17.009-57.783h0.93198c5.5919 19.804 10.951 38.444 17.242 57.783l8.1548 26.095h-51.725zm-52.191 95.528h21.901l16.543-52.191h62.442l16.31 52.191h22.833l-58.016-171.02h-23.998z"/>
 </g>
 <text x="49.665657" y="273.79694" fill="#ffffff" font-family="sans-serif" font-size="334.13px" stroke-width="8.3533" style="line-height:1.25" xml:space="preserve"><tspan x="49.665657" y="273.79694" fill="#ffffff" stroke-width="8.3533">x</tspan></text>
</svg>
